<?xml version="1.0" encoding="utf-8"?>
<!-- Generator: Adobe Illustrator 23.1.1, SVG Export Plug-In . SVG Version: 6.00 Build 0)  -->
<svg version="1.1" id="Layer_1" xmlns="http://www.w3.org/2000/svg" xmlns:xlink="http://www.w3.org/1999/xlink" x="0px" y="0px"
	 viewBox="0 0 1000 1000" style="enable-background:new 0 0 1000 1000;" xml:space="preserve">
<style type="text/css">
	.st0{fill:#F5F5F5;}
	.st1{fill:#413E51;}
	.st2{fill:#4B94A5;stroke:#4B94A5;stroke-width:6;stroke-linecap:round;stroke-linejoin:round;stroke-miterlimit:10;}
	.st3{display:none;fill:#413E51;stroke:#413E51;stroke-width:6;stroke-linecap:round;stroke-linejoin:round;stroke-miterlimit:10;}
	.st4{fill:#747178;}
	.st5{opacity:0.43;fill:#514E55;stroke:#464349;stroke-width:4;stroke-miterlimit:10;}
	.st6{fill:none;stroke:#413E51;stroke-width:6;stroke-linecap:round;stroke-linejoin:round;stroke-miterlimit:10;}
	.st7{fill:#C9C9C9;}
	.st8{fill:none;stroke:#413E51;stroke-width:8;stroke-linecap:round;stroke-linejoin:round;stroke-miterlimit:10;}
	.st9{fill:#514E55;}
	.st10{opacity:0.48;fill:none;stroke:#413E51;stroke-width:6;stroke-linecap:round;stroke-linejoin:round;stroke-miterlimit:10;}
	.st11{fill:#BFC1C0;}
	.st12{opacity:0.52;fill:#DDDDDD;}
	.st13{opacity:0.48;fill:#413E51;}
</style>
<rect id="XMLID_12_" class="st0" width="1000" height="1000"/>
<path id="XMLID_29_" class="st2" d="M632,350.4H388.6c-3,0-6,1.2-8.1,3.4l-27.1,27.1c-2.2,2.2-3.4,5.1-3.4,8.1v243.4
	c0,9.9,8.1,18,18,18h264c9.9,0,18-8.1,18-18v-264C650,358.5,641.9,350.4,632,350.4z"/>
<path id="XMLID_3_" class="st3" d="M630,346.5H386.6c-3,0-6,1.2-8.1,3.4L351.4,377c-2.2,2.2-3.4,5.1-3.4,8.1v243.4
	c0,9.9,8.1,18,18,18h264c9.9,0,18-8.1,18-18v-264C648,354.6,639.9,346.5,630,346.5z"/>
<path id="XMLID_9_" class="st4" d="M620.1,336.9H376.7c-3,0-6,1.2-8.1,3.4l-27.1,27.1c-2.2,2.2-3.4,5.1-3.4,8.1v243.4
	c0,9.9,8.1,18,18,18h264c9.9,0,18-8.1,18-18v-264C638.1,345,630,336.9,620.1,336.9z"/>
<circle id="XMLID_24_" class="st5" cx="488.1" cy="491.9" r="126.7"/>
<path id="XMLID_16_" class="st6" d="M620.1,336.9H376.7c-3,0-6,1.2-8.1,3.4l-27.1,27.1c-2.2,2.2-3.4,5.1-3.4,8.1v243.4
	c0,9.9,8.1,18,18,18h264c9.9,0,18-8.1,18-18v-264C638.1,345,630,336.9,620.1,336.9z"/>
<path id="XMLID_2_" class="st6" d="M620.1,336.9H376.7c-3,0-6,1.2-8.1,3.4l-27.1,27.1c-2.2,2.2-3.4,5.1-3.4,8.1v243.4
	c0,9.9,8.1,18,18,18h264c9.9,0,18-8.1,18-18v-264C638.1,345,630,336.9,620.1,336.9z"/>
<circle id="XMLID_15_" class="st7" cx="488.1" cy="491.9" r="42"/>
<circle id="XMLID_17_" class="st6" cx="488.1" cy="491.9" r="42"/>
<path id="XMLID_21_" class="st1" d="M592.1,636.9h-208v-25c0-9.9,8.1-18,18-18h172c9.9,0,18,8.1,18,18V636.9z"/>
<path id="XMLID_18_" class="st6" d="M592.1,636.9h-208v-25c0-9.9,8.1-18,18-18h172c9.9,0,18,8.1,18,18V636.9z"/>
<rect id="XMLID_28_" x="605.6" y="593.9" class="st1" width="14" height="14"/>
<rect id="XMLID_22_" x="605.6" y="593.9" class="st6" width="14" height="14"/>
<line id="XMLID_32_" class="st8" x1="530.1" y1="580.6" x2="597.1" y2="580.6"/>
<rect id="XMLID_33_" x="482.6" y="485.9" class="st1" width="9" height="9"/>
<rect id="XMLID_31_" x="482.6" y="485.9" class="st6" width="9" height="9"/>
<rect id="XMLID_38_" x="490" y="504.4" transform="matrix(0.9437 -0.3309 0.3309 0.9437 -140.3969 194.1376)" class="st1" width="20" height="10"/>
<rect id="XMLID_35_" x="490" y="504.4" transform="matrix(0.9437 -0.3309 0.3309 0.9437 -140.3969 194.1376)" class="st6" width="20" height="10"/>
<path id="XMLID_44_" class="st1" d="M638.1,398.9c-6.6,0-12-5.4-12-12s5.4-12,12-12V398.9z"/>
<path id="XMLID_42_" class="st6" d="M638.1,398.9c-6.6,0-12-5.4-12-12s5.4-12,12-12V398.9z"/>
<path id="XMLID_49_" class="st1" d="M338.1,398.9c6.6,0,12-5.4,12-12s-5.4-12-12-12V398.9z"/>
<path id="XMLID_48_" class="st6" d="M338.1,398.9c6.6,0,12-5.4,12-12s-5.4-12-12-12V398.9z"/>
<g id="XMLID_39_">
	<circle id="XMLID_37_" class="st1" cx="359.8" cy="414.4" r="8.5"/>
	<circle id="XMLID_46_" class="st1" cx="610.3" cy="414.4" r="8.5"/>
</g>
<path id="XMLID_23_" class="st9" d="M579.1,428.9h-138c-9.9,0-18-8.1-18-18v-74h174v74C597.1,420.9,589,428.9,579.1,428.9z"/>
<path id="XMLID_34_" class="st10" d="M535.1,428.9h-88c-9.9,0-18-8.1-18-18v-74h124v74C553.1,420.9,545,428.9,535.1,428.9z"/>
<path id="XMLID_14_" class="st6" d="M579.1,428.9h-138c-9.9,0-18-8.1-18-18v-74h174v74C597.1,420.9,589,428.9,579.1,428.9z"/>
<line id="XMLID_30_" class="st8" x1="547.1" y1="349.9" x2="580.6" y2="349.9"/>
<path id="XMLID_20_" class="st11" d="M529.1,428.9h-88c-9.9,0-18-8.1-18-18v-74h124v74C547.1,420.9,539,428.9,529.1,428.9z"/>
<polygon id="XMLID_51_" class="st12" points="495.6,428.9 547.1,357.8 547.1,341.5 482.2,428.9 "/>
<path id="XMLID_50_" class="st12" d="M444.4,428.6c1.2,0.2-4.6,0.4-3.3,0.4h29.8l68.7-92h-26.8L444.4,428.6z"/>
<path id="XMLID_19_" class="st6" d="M529.1,428.9h-88c-9.9,0-18-8.1-18-18v-74h124v74C547.1,420.9,539,428.9,529.1,428.9z"/>
<rect id="XMLID_26_" x="445.7" y="347.9" class="st9" width="24" height="58"/>
<rect id="XMLID_1_" x="445.7" y="347.9" class="st13" width="13.4" height="58"/>
<rect id="XMLID_25_" x="445.7" y="347.9" class="st6" width="24" height="58"/>
<rect id="XMLID_27_" x="522.2" y="347.9" class="st6" width="12" height="6"/>
<line id="XMLID_5_" class="st6" x1="361.4" y1="636.9" x2="361.4" y2="612.9"/>
</svg>
