<?xml version="1.0" encoding="utf-8"?>
<svg version="1.1" id="Layer_1" xmlns="http://www.w3.org/2000/svg" xmlns:xlink="http://www.w3.org/1999/xlink" x="0px" y="0px"
	 viewBox="0 0 1000 1000" style="enable-background:new 0 0 1000 1000;" xml:space="preserve">
<style type="text/css">
	.st0{fill:#f5f5f5;}
	.st1{fill:none;stroke:#CECECE;stroke-width:6;stroke-linecap:round;stroke-linejoin:round;stroke-miterlimit:10;}
	.st2{fill:#00354C;}
	.st3{fill:none;stroke:#00354C;stroke-width:6;stroke-linecap:round;stroke-linejoin:round;stroke-miterlimit:10;}
	.st4{fill:#D1D1D1;}
	.st5{fill:#01D392;}
	.st6{fill:#F7BF46;}
	.st7{opacity:0.68;fill:none;stroke:#F7BF46;stroke-miterlimit:10;}
	.st8{fill:none;stroke:#00354C;stroke-width:3;stroke-linecap:round;stroke-linejoin:round;stroke-miterlimit:10;}
	.st9{fill:none;stroke:#00354C;stroke-width:4;stroke-linecap:round;stroke-linejoin:round;stroke-miterlimit:10;}
	.st10{fill:#F6F6F4;}
</style>
<rect id="XMLID_26_" class="st0" width="1000" height="1000"/>
<g id="XMLID_52_">
	<path id="XMLID_37_" class="st1" d="M455.7,501.5l139,114.2c6.9,5.7,16.9,5.7,23.8,0v0c9.1-7.5,9.1-21.5,0-28.9l-150-123.2
		c-7.4-6.1-18.1-6.1-25.6,0L293,586.7c-9.1,7.5-9.1,21.5,0,28.9l0,0c6.9,5.7,16.9,5.7,23.8,0L455.7,501.5z"/>
	<polygon id="XMLID_44_" class="st1" points="455.7,501.5 341.5,595.3 351.4,784.4 560.1,784.4 569.9,595.3 	"/>
	<path id="XMLID_36_" class="st1" d="M455.7,623.2L455.7,623.2c-40.7,0-72.6,27.3-71.4,60l3.8,101.2h135.2l3.8-101.2
		C528.3,650.5,496.4,623.2,455.7,623.2z"/>
	<path id="XMLID_41_" class="st1" d="M435,590c1.9,4.4,7,6.4,11.4,4.6c2.8-1.1,6-1.8,9.3-1.8s6.5,0.6,9.3,1.8
		c4.4,1.8,9.5-0.2,11.4-4.6c0.9-2.1,1.4-4.4,1.4-6.7c0-10.6-9.9-19.1-22.2-19.1s-22.2,8.6-22.2,19.1C433.6,585.7,434,587.9,435,590z
		"/>
	
		<ellipse id="XMLID_42_" transform="matrix(0.7866 -0.6174 0.6174 0.7866 -251.5098 383.4871)" class="st1" cx="429.1" cy="555.6" rx="7.8" ry="6.6"/>
	<ellipse id="XMLID_34_" class="st1" cx="455.7" cy="546.6" rx="10.2" ry="6.9"/>
	
		<ellipse id="XMLID_39_" transform="matrix(0.6174 -0.7866 0.7866 0.6174 -255.5751 591.1545)" class="st1" cx="480" cy="558.3" rx="6.6" ry="7.8"/>
</g>

<line id="XMLID_10_" class="st3" x1="188.5" y1="784.2" x2="200" y2="784.2"/>
<path id="XMLID_72_" class="st4" d="M495.2,625.8c2.9-17.4,9.8-37.4,18-54.1c-11.4,18.6-21.7,45.1-25.4,67.5
	c-5.7,34.1-3.8,65.4,4.9,85.3l5.2-18.8C491.1,685.8,490,657,495.2,625.8z"/>
<g id="XMLID_51_">
	<path id="XMLID_43_" class="st5" d="M255.4,454.2c-28.6-2-29.6,31-24.6,53c2,12-11,19-16.9,28.2c-2.5,4-4.8,8.7-6,14.7
		c-3.3,15.9,6.1,29.4,7.6,43.9c0.4,3.6,0.3,7.3-0.6,11.1c-1.1,4.1-3.1,8.1-5.1,12.1c-16,18-42,39-24,63c3.3,4.2,6.9,7.9,10.8,11.2
		c31.2,26.8,78.2,24.8,114.2,7.8c13-7,26-17,29-32c2-16-5-31-15.7-41.6c-3.2-3.5-6.7-6.8-10.3-9.7c-2.6-4-4.2-7.8-5-11.5
		c-1.9-9.2,1-17.8,3.8-26.5c1.4-4.3,2.7-8.7,3.4-13.2c3.8-22.6-18.2-36.6-30.2-52.6c-5-7-3-16-1-24c4-19-11-35-28.9-34"/>
	<path id="XMLID_35_" class="st3" d="M259.9,548.9c-4.6,21.7-5.6,43-5,64.3c0.2,5.3,13.9,94,5.1,132.8c-0.2,5.6-0.2,8.9-0.2,8.9"/>
	<line id="XMLID_45_" class="st3" x1="274.8" y1="632.8" x2="259.9" y2="654.3"/>
	<path id="XMLID_32_" class="st6" d="M283.8,787.2h-46c-0.6,0-1.1-0.4-1.2-1l-11.8-49.8h72L285,786.3
		C284.9,786.8,284.4,787.2,283.8,787.2z"/>
	<line id="XMLID_47_" class="st7" x1="232" y1="764" x2="289.6" y2="764"/>
	<line id="XMLID_48_" class="st7" x1="232.9" y1="767.6" x2="288.7" y2="767.6"/>
</g>
<line id="XMLID_23_" class="st3" x1="503.4" y1="773" x2="503.4" y2="784"/>
<ellipse id="XMLID_69_" class="st5" cx="190.3" cy="589.2" rx="10.7" ry="17.4"/>
<rect id="XMLID_74_" x="789.4" y="670.2" transform="matrix(0.7071 0.7071 -0.7071 0.7071 712.1226 -364.7542)" class="st5" width="14" height="14"/>
<rect id="XMLID_119_" x="725.1" y="383" transform="matrix(0.7071 0.7071 -0.7071 0.7071 487.6996 -402.4377)" class="st5" width="9" height="9"/>
<g id="XMLID_104_">
	<g id="XMLID_75_">
		<line id="XMLID_76_" class="st8" x1="227.1" y1="256.3" x2="227.1" y2="270.6"/>
		<line id="XMLID_78_" class="st8" x1="227.1" y1="288.7" x2="227.1" y2="303"/>
	</g>
	<g id="XMLID_77_">
		<line id="XMLID_80_" class="st8" x1="206.8" y1="268" x2="219.2" y2="275.1"/>
		<line id="XMLID_79_" class="st8" x1="235" y1="284.2" x2="247.4" y2="291.3"/>
	</g>
	<g id="XMLID_81_">
		<line id="XMLID_83_" class="st8" x1="206.8" y1="291.3" x2="219.2" y2="284.2"/>
		<line id="XMLID_82_" class="st8" x1="235" y1="275.1" x2="247.4" y2="268"/>
	</g>
</g>
<g id="XMLID_91_">
	<line id="XMLID_93_" class="st8" x1="853.1" y1="317.4" x2="853.1" y2="327.3"/>
	<line id="XMLID_92_" class="st8" x1="853.1" y1="339.9" x2="853.1" y2="349.9"/>
</g>
<g id="XMLID_88_">
	<line id="XMLID_90_" class="st8" x1="839.1" y1="325.5" x2="847.7" y2="330.5"/>
	<line id="XMLID_89_" class="st8" x1="858.6" y1="336.8" x2="867.2" y2="341.7"/>
</g>
<g id="XMLID_85_">
	<line id="XMLID_87_" class="st8" x1="839.1" y1="341.7" x2="847.7" y2="336.8"/>
	<line id="XMLID_86_" class="st8" x1="858.6" y1="330.5" x2="867.2" y2="325.5"/>
</g>
<circle id="XMLID_84_" class="st6" cx="776.5" cy="464.8" r="15.1"/>
<g id="XMLID_103_">
	<g id="XMLID_100_">
		<line id="XMLID_102_" class="st8" x1="776.5" y1="442.8" x2="776.5" y2="454.9"/>
		<line id="XMLID_101_" class="st8" x1="776.5" y1="474.6" x2="776.5" y2="486.7"/>
	</g>
	<g id="XMLID_97_">
		<line id="XMLID_99_" class="st8" x1="757.5" y1="453.8" x2="768" y2="459.8"/>
		<line id="XMLID_98_" class="st8" x1="785.1" y1="469.7" x2="795.6" y2="475.7"/>
	</g>
	<g id="XMLID_94_">
		<line id="XMLID_96_" class="st8" x1="757.5" y1="476.4" x2="768" y2="469.7"/>
		<line id="XMLID_95_" class="st8" x1="785.1" y1="459.8" x2="795.6" y2="453.8"/>
	</g>
</g>
<line id="XMLID_106_" class="st9" x1="550.5" y1="140.9" x2="550.5" y2="155.6"/>
<line id="XMLID_105_" class="st9" x1="557.8" y1="148.2" x2="543.2" y2="148.2"/>
<line id="XMLID_110_" class="st9" x1="889.7" y1="655.1" x2="889.7" y2="669.8"/>
<line id="XMLID_109_" class="st9" x1="897" y1="662.5" x2="882.3" y2="662.5"/>
<line id="XMLID_107_" class="st9" x1="375.2" y1="396" x2="375.2" y2="405"/>
<line id="XMLID_63_" class="st9" x1="379.7" y1="400.5" x2="370.7" y2="400.5"/>
<rect id="XMLID_108_" x="328.3" y="468.4" transform="matrix(0.7071 0.7071 -0.7071 0.7071 432.3811 -97.0651)" class="st6" width="10" height="10"/>
<line id="XMLID_111_" class="st9" x1="112.1" y1="431.2" x2="138.5" y2="431.2"/>
<line id="XMLID_22_" class="st9" x1="147.5" y1="431.2" x2="157.6" y2="431.2"/>
<line id="XMLID_113_" class="st9" x1="126.8" y1="444" x2="156" y2="444"/>
<line id="XMLID_117_" class="st9" x1="684.2" y1="555.1" x2="710.5" y2="555.1"/>
<line id="XMLID_116_" class="st9" x1="719.5" y1="555.1" x2="729.6" y2="555.1"/>
<line id="XMLID_115_" class="st9" x1="698.8" y1="565.8" x2="728.1" y2="565.8"/>
<line id="XMLID_66_" class="st3" x1="765" y1="784.2" x2="806.3" y2="784.2"/>
<line id="XMLID_30_" class="st3" x1="221" y1="784.2" x2="303.7" y2="784.2"/>
<circle id="XMLID_16_" class="st6" cx="700.5" cy="192.7" r="51.7"/>
<circle id="XMLID_33_" class="st6" cx="752.2" cy="151.7" r="51.7"/>
<circle id="XMLID_123_" class="st6" cx="823.9" cy="170.2" r="47.2"/>
<circle id="XMLID_126_" class="st6" cx="752.2" cy="222" r="51.5"/>
<circle id="XMLID_124_" class="st6" cx="807" cy="222" r="34.3"/>
<path id="XMLID_125_" class="st6" d="M698.8,327.6c0,7.8-2,12.5-9.8,12.5s-14.2-3-14.2-10.8c0-7.8,4.1-14.8,12-14.8
	C694.7,314.5,698.8,319.8,698.8,327.6z"/>
<path id="XMLID_130_" class="st6" d="M726.9,288.7c0,11.8-2.9,18.8-14.7,18.8S691,303,691,291.2s9.5-21.3,21.3-21.3
	S726.9,277,726.9,288.7z"/>
<g>
	<path id="XMLID_31_" class="st0" d="M717,640.2c0.2,2.7,0.3,5.4,0.3,8.1c0,55.9-45,101.3-100.5,101.3c-46.6,0-85.8-32-97.2-75.4
		c4.1,52.1,47.4,93.2,100.2,93.2c55.5,0,100.5-45.3,100.5-101.3C720.4,657.1,719.2,648.5,717,640.2z"/>
	<path id="XMLID_17_" class="st3" d="M717,640.2c0.2,2.7,0.3,5.4,0.3,8.1c0,55.9-45,101.3-100.5,101.3c-46.6,0-85.8-32-97.2-75.4
		c4.1,52.1,47.4,93.2,100.2,93.2c55.5,0,100.5-45.3,100.5-101.3C720.4,657.1,719.2,648.5,717,640.2z"/>
	<path id="XMLID_28_" class="st0" d="M541.3,549.2c-17-7.6-46.6,48.4-53.5,90c-5.7,34.1-3.8,65.4,4.9,85.3L541.3,549.2z"/>
	<path id="XMLID_1_" class="st3" d="M541.3,549.2c-17-7.6-46.6,48.4-53.5,90c-5.7,34.1-3.8,65.4,4.9,85.3L541.3,549.2z"/>
	<path id="XMLID_68_" class="st0" d="M593.7,549.2c17-7.6,46.6,48.4,53.5,90c5.7,34.1,3.8,65.4-4.9,85.3L593.7,549.2z"/>
	<path id="XMLID_56_" class="st4" d="M639.9,625.8c-2.9-17.4-9.8-37.4-18-54.1c11.4,18.6,21.7,45.1,25.4,67.5
		c5.7,34.1,3.8,65.4-4.9,85.3l-5.2-18.8C644,685.8,645,657,639.9,625.8z"/>
	<path id="XMLID_54_" class="st3" d="M593.7,549.2c17-7.6,46.6,48.4,53.5,90c5.7,34.1,3.8,65.4-4.9,85.3L593.7,549.2z"/>
	<path id="XMLID_18_" class="st0" d="M645.3,732c-1.1-16.6-44.3-196.8-56-205.8h-21.1h-21.7c-11.7,9-55,189.1-56,205.8
		c-1.3,20.7-8.1,52.2,31.2,52.2h46.5h46C653.4,784.2,646.6,752.7,645.3,732z"/>
	<path id="XMLID_20_" class="st4" d="M495.2,706.5c0,0-3.1,26.4,11.7,36.1c11.6,7.7,21.8,10.8,40.9,14.3c10.3,1.9,21.5,2.7,21.5,2.7
		l1.2,23.7l-81.4,0.6c0,0-1.4-33.3,0.6-43.3C491.7,730.7,492.7,714.1,495.2,706.5z"/>
	<path id="XMLID_5_" class="st4" d="M641.4,706.5c0,0,3.1,26.4-11.7,36.1c-11.6,7.7-21.8,10.8-40.9,14.3
		c-10.3,1.9-21.5,2.7-21.5,2.7l-1.2,23.7l81.4,0.6c0,0,1.4-33.3-0.6-43.3C644.9,730.7,643.9,714.1,641.4,706.5z"/>
	<path id="XMLID_64_" class="st6" d="M603.6,562.5c-2.5-0.7-4.9-1.1-7-1.1c-12.2,0-21.9,6.5-21.9,21.5c0,15.1,21.9,33,34.1,33
		c3.3,0,6.4-0.9,9.2-2.5C613.1,595,608.1,577.2,603.6,562.5z"/>
	<path id="XMLID_58_" class="st6" d="M511.1,692.1c13.5,0,24.5-13.3,24.5-29.7c0-15.7-10.1-28.6-22.9-29.6c-5,19.6-9.7,39-13.5,55.5
		C502.8,690.7,506.8,692.1,511.1,692.1z"/>
	<path id="XMLID_46_" class="st4" d="M543.4,530.5c0,0,7.1,5.7,23.4,5.7c13.2,0,24.8-5.7,24.8-5.7l-1-3.9l-46.5,0L543.4,530.5z"/>
	<path id="XMLID_4_" class="st3" d="M645.3,732c-1.1-16.6-44.3-196.8-56-205.8h-21.1h-21.7c-11.7,9-55,189.1-56,205.8
		c-1.3,20.7-8.1,52.2,31.2,52.2h46.5h46C653.4,784.2,646.6,752.7,645.3,732z"/>
	<path id="XMLID_9_" class="st0" d="M643,454.2c-1.9-19.5-11.5-68.8-22.3-103.3c-17.2-55.1-37.4-69.5-49.1-71
		c-1.2-0.2-3.8-0.2-3.8-0.2s-2.5,0-3.8,0.2c-11.7,1.4-31.8,15.7-49.1,70.9c-10.8,34.5-20.3,83.9-22.3,103.5
		c-4.3,44,16.8,68.3,44.2,71.8c7.8,1,23.2,1,31,1c7.7,0,23.1,0,31-1C626.1,522.5,647.3,498.2,643,454.2z"/>
	<ellipse id="XMLID_49_" class="st4" cx="567.8" cy="479.6" rx="18.9" ry="14.9"/>
	<path id="XMLID_55_" class="st4" d="M550.5,285.5c0,0-9,33.9-27.8,43.7c4.8-10.8,11.3-23.7,11.3-23.7S545.2,287,550.5,285.5z"/>
	<path id="XMLID_53_" class="st4" d="M571.6,280c0,0,24.4,42,44.7,58.1c0,0-4.6-29.8-9.1-38.8S580.7,277.2,571.6,280z"/>
	<path id="XMLID_15_" class="st6" d="M519.8,441.3c39.3-16.9,62.8-50.2,52.4-74.3c-7.3-16.9-29.3-24.8-55.3-22.2
		c-0.6,1.9-1.3,3.9-1.9,6c-10,32-18.9,76.7-21.7,98.6C501.9,447.8,510.9,445.2,519.8,441.3z"/>
	<path id="XMLID_14_" class="st3" d="M624.1,487.1c-11.2,16.3-35.7,27.3-61.8,27.3c-24.2,0-38.7-14.2-47.2-31.9"/>
	<ellipse id="XMLID_7_" class="st2" cx="567.8" cy="477" rx="23.7" ry="12.2"/>
	<path id="XMLID_2_" class="st0" d="M697.9,777.9c-15.2-14.3-44.4-21.4-72.9-19.2c-24.4,1.8-42.5,10.1-49.6,21.1
		c-1.2,1.9,0.3,4.4,2.6,4.4l115.5,0C698,784.2,700.7,780.5,697.9,777.9z"/>
	<path id="XMLID_50_" class="st4" d="M697.1,777.7c-0.3,0.1-0.7,0.2-1.1,0.2l-115.5,0c-1.4,0-2.6-0.3-3.5-0.9
		c-0.3,0.3-0.7,0.6-1,0.9c-2.8,2.6-0.1,6.3,4.5,6.3l115.5,0c2.3,0,3.8-2.6,2.6-4.4C698.1,779,697.6,778.3,697.1,777.7z"/>
	<path id="XMLID_19_" class="st3" d="M697.9,777.9c-15.2-14.3-44.4-21.4-72.9-19.2c-24.4,1.8-42.5,10.1-49.6,21.1
		c-1.2,1.9,0.3,4.4,2.6,4.4l115.5,0C698,784.2,700.7,780.5,697.9,777.9z"/>
	<line id="XMLID_8_" class="st3" x1="635.4" y1="773" x2="635.4" y2="784"/>
	<path id="XMLID_25_" class="st0" d="M441,777.9c15.2-14.3,44.4-21.4,72.9-19.2c24.4,1.8,42.5,10.1,49.6,21.1
		c1.2,1.9-0.3,4.4-2.6,4.4l-115.5,0C440.9,784.2,438.2,780.5,441,777.9z"/>
	<path id="XMLID_67_" class="st4" d="M562.1,777.7c-0.3,0.1-0.7,0.2-1.1,0.2l-115.5,0c-1.4,0-2.6-0.3-3.5-0.9
		c-0.3,0.3-0.7,0.6-1,0.9c-2.8,2.6-0.1,6.3,4.5,6.3l115.5,0c2.3,0,3.8-2.6,2.6-4.4C563.1,779,562.6,778.3,562.1,777.7z"/>
	<path id="XMLID_24_" class="st3" d="M441,777.9c15.2-14.3,44.4-21.4,72.9-19.2c24.4,1.8,42.5,10.1,49.6,21.1
		c1.2,1.9-0.3,4.4-2.6,4.4l-115.5,0C440.9,784.2,438.2,780.5,441,777.9z"/>
	<path id="XMLID_13_" class="st3" d="M643,454.2c-1.9-19.5-11.5-68.8-22.3-103.3c-17.2-55.1-37.4-69.5-49.1-71
		c-1.2-0.2-3.8-0.2-3.8-0.2s-2.5,0-3.8,0.2c-11.7,1.4-31.8,15.7-49.1,70.9c-10.8,34.5-20.3,83.9-22.3,103.5
		c-4.3,44,16.8,68.3,44.2,71.8c7.8,1,23.2,1,31,1c7.7,0,23.1,0,31-1C626.1,522.5,647.3,498.2,643,454.2z"/>
	<path id="XMLID_29_" class="st0" d="M569.8,279.5c0,0,34.9-7.4,44.5-2.9c9.9,4.6,27.8,39.7,20.4,53.4
		C623.4,351,590.2,275,569.8,279.5z"/>
	<path id="XMLID_11_" class="st3" d="M569.8,279.5c0,0,34.9-7.4,44.5-2.9c9.9,4.6,27.8,39.7,20.4,53.4
		C623.4,351,590.2,275,569.8,279.5z"/>
	<path id="XMLID_27_" class="st0" d="M504.3,285.8l48.3-1.4c0,0-44.8,48.2-65.5,58.6C466.4,353.4,487.6,285.7,504.3,285.8z"/>
	<path id="XMLID_12_" class="st3" d="M504.3,285.8l48.3-1.4c0,0-44.8,48.2-65.5,58.6C466.4,353.4,487.6,285.7,504.3,285.8z"/>
	<ellipse id="XMLID_3_" class="st2" cx="548.7" cy="387.5" rx="5" ry="6.5"/>
	<ellipse id="XMLID_6_" class="st2" cx="590.9" cy="387.5" rx="5" ry="6.5"/>
	<line id="XMLID_57_" class="st3" x1="392.3" y1="784.2" x2="739" y2="784.2"/>
	<path id="XMLID_128_" class="st6" d="M668.2,347c0,5.6-1.4,8.9-7,8.9s-10.1-2.1-10.1-7.7s4.5-10.1,10.1-10.1S668.2,341.4,668.2,347
		z"/>
</g>
<path id="XMLID_21_" class="st10" d="M804.8,188c1.5-1.8,2.4-4.3,2.1-7c-0.5-4.2-6.2-6.3-8.6-6.8c-3.2-0.6-9.9,2.3-9.9,7.8
	c0,0,0,0,0,0c0,1.3-1,2.4-2.3,2.4h-45.5c-1.3,0-2.3-1.1-2.3-2.3c0-1.2-0.2-2.5-0.8-3.8c-1.3-3-4.6-3.4-7.5-3.7
	c-5-0.6-10.3,1.9-10.3,7.4c0,2.3,0.8,4.3,2.2,5.9c0.9,1.1,0.9,2.7,0,3.8c-1.5,1.8-2.4,4.3-2.1,7c0.5,4.2,4.5,6,8.3,6.4
	c5,0.6,10.2-2,10.2-7.4c0,0,0,0,0,0c0-1.3,1-2.4,2.3-2.4h45.5c1.3,0,2.3,1.1,2.3,2.3c0,1.2,0.2,2.5,0.8,3.8c1.3,3,6,3.7,7.8,4.1
	c3.2,0.6,9.9-2.3,9.9-7.8c0-2.3-0.8-4.3-2.2-5.9C803.9,190.7,803.9,189.1,804.8,188z"/>
</svg>
