<?xml version="1.0" encoding="utf-8"?>
<!-- Generator: Adobe Illustrator 23.1.1, SVG Export Plug-In . SVG Version: 6.00 Build 0)  -->
<svg version="1.1" id="Layer_1" xmlns="http://www.w3.org/2000/svg" xmlns:xlink="http://www.w3.org/1999/xlink" x="0px" y="0px"
	 viewBox="0 0 1000 1000" style="enable-background:new 0 0 1000 1000;" xml:space="preserve">
<style type="text/css">
	.st0{fill:#F5F5F5;}
	.st1{fill:#EEF2F4;}
	.st2{opacity:0.32;fill:#1C1C1C;}
	.st3{fill:#383939;}
	.st4{fill:#3A3A3A;}
	.st5{fill:none;stroke:#383939;stroke-width:6;stroke-linecap:round;stroke-linejoin:round;stroke-miterlimit:10;}
	.st6{fill:#4F4F4F;}
	.st7{fill:#D4E8DC;}
	.st8{fill:#EBF2EE;}
	.st9{fill:#CAD8D0;}
	.st10{fill:#A1ADA6;}
	.st11{fill:#DAEDE2;}
	.st12{fill:#E7F7F7;}
	.st13{opacity:0.16;fill:#C2D3C9;}
	.st14{opacity:0.38;}
	.st15{fill:#C2D3C9;}
</style>
<rect id="XMLID_12_" class="st0" width="1000" height="1000"/>
<path id="XMLID_5_" class="st2" d="M582.2,613.6H414.3c-3,0-5.5-2.5-5.5-5.5l0,0c0-3,2.5-5.5,5.5-5.5h167.9c3,0,5.5,2.5,5.5,5.5l0,0
	C587.7,611.1,585.2,613.6,582.2,613.6z"/>
<path id="XMLID_3_" class="st2" d="M699.5,655.5H347.7c-3,0-5.5-2.5-5.5-5.5v0c0-3,2.5-5.5,5.5-5.5h351.8c3,0,5.5,2.5,5.5,5.5v0
	C705,653.1,702.5,655.5,699.5,655.5z"/>
<path id="XMLID_7_" class="st3" d="M674.2,505.1h-352V316.7c0-8.7,7-15.7,15.7-15.7H658c8.9,0,16.2,7.3,16.2,16.2V505.1z"/>
<path id="XMLID_30_" class="st4" d="M328.2,490.1v-174c0-5,4-9,9-9h322c5,0,9,4,9,9v174c0,5-4,9-9,9h-322
	C332.3,499.1,328.2,495,328.2,490.1z"/>
<path id="XMLID_18_" class="st5" d="M674.2,505.1h-352V316.7c0-8.7,7-15.7,15.7-15.7H658c8.9,0,16.2,7.3,16.2,16.2V505.1z"/>
<rect id="XMLID_10_" x="416.2" y="247.1" transform="matrix(-1.836970e-16 1 -1 -1.836970e-16 901.2849 -95.1796)" class="st6" width="164" height="312"/>
<path id="XMLID_19_" class="st7" d="M657.9,553.1H338c-8.7,0-15.8-7.1-15.8-15.8v-32.2h352v31.7
	C674.2,545.7,666.9,553.1,657.9,553.1z"/>
<path id="XMLID_4_" class="st8" d="M338,545.1c-4.3,0-7.8-3.5-7.8-7.8v-28.9h336v28.4c0,4.6-3.7,8.3-8.3,8.3H338z"/>
<path id="XMLID_6_" class="st5" d="M657.9,553.1H338c-8.7,0-15.8-7.1-15.8-15.8v-32.2h352v31.7C674.2,545.7,666.9,553.1,657.9,553.1
	z"/>
<polygon id="XMLID_22_" class="st9" points="551.2,589.1 445.2,589.1 460.9,553.1 535.5,553.1 "/>
<polygon id="XMLID_27_" class="st10" points="542.5,569.1 535.5,553.1 460.9,553.1 453.9,569.1 "/>
<polygon id="XMLID_1_" class="st5" points="551.2,589.1 445.2,589.1 460.9,553.1 535.5,553.1 "/>
<path id="XMLID_23_" class="st11" d="M571.2,605.1h-146l1.5-5.3c1.8-6.3,7.7-10.7,14.5-10.7h114c6.8,0,12.8,4.4,14.5,10.7
	L571.2,605.1z"/>
<path id="XMLID_9_" class="st5" d="M571.2,605.1h-146l1.5-5.3c1.8-6.3,7.7-10.7,14.5-10.7h114c6.8,0,12.8,4.4,14.5,10.7L571.2,605.1
	z"/>
<path id="XMLID_24_" class="st11" d="M368.1,646h253.7c3.7,0,6.7-3,6.7-6.7l0,0c0-3.7-3-6.7-6.7-6.7H368.1c-3.7,0-6.7,3-6.7,6.7l0,0
	C361.3,643,364.3,646,368.1,646z"/>
<path id="XMLID_8_" class="st5" d="M368.1,646h253.7c3.7,0,6.7-3,6.7-6.7l0,0c0-3.7-3-6.7-6.7-6.7H368.1c-3.7,0-6.7,3-6.7,6.7l0,0
	C361.3,643,364.3,646,368.1,646z"/>
<path id="XMLID_11_" class="st3" d="M445.9,632.5h122v-4c0-3.3-2.7-6-6-6h-110c-3.3,0-6,2.7-6,6V632.5z"/>
<path id="XMLID_13_" class="st3" d="M421.7,632.5h21.2v-4c0-3.3-2.7-6-6-6h-9.2c-3.3,0-6,2.7-6,6V632.5z"/>
<path id="XMLID_14_" class="st3" d="M397,632.5h21.2v-4c0-3.3-2.7-6-6-6H403c-3.3,0-6,2.7-6,6V632.5z"/>
<path id="XMLID_17_" class="st3" d="M596.2,632.5h21.2v-4c0-3.3-2.7-6-6-6h-9.2c-3.3,0-6,2.7-6,6V632.5z"/>
<path id="XMLID_16_" class="st3" d="M571.6,632.5h21.2v-4c0-3.3-2.7-6-6-6h-9.2c-3.3,0-6,2.7-6,6V632.5z"/>
<path id="XMLID_15_" class="st3" d="M372.4,632.5h21.2v-4c0-3.3-2.7-6-6-6h-9.2c-3.3,0-6,2.7-6,6V632.5z"/>
<path id="XMLID_25_" class="st11" d="M688.7,646c-0.1-7.6-8.4-15.2-23.1-15.2c-14.6,0-23,7.6-23.1,15.2H688.7z"/>
<path id="XMLID_20_" class="st5" d="M688.7,646c-0.1-7.6-8.4-15.2-23.1-15.2c-14.6,0-23,7.6-23.1,15.2H688.7z"/>
<path id="XMLID_21_" class="st3" d="M512.4,526.6c-4.6,0-8.4-3.4-9-7.9c-0.1,0-0.1,0-0.2,0c-5.7,0-10.3,4.6-10.3,10.3
	s4.6,10.3,10.3,10.3s10.3-4.6,10.3-10.3c0-0.9-0.1-1.7-0.3-2.5C512.9,526.6,512.7,526.6,512.4,526.6z"/>
<path id="XMLID_31_" class="st12" d="M509.1,401.5c-2.9,0-5.4-2.2-5.7-5c0,0-0.1,0-0.1,0c-3.6,0-6.6,3-6.6,6.6s3,6.6,6.6,6.6
	s6.6-3,6.6-6.6c0-0.6-0.1-1.1-0.2-1.6C509.4,401.5,509.3,401.5,509.1,401.5z"/>
<polygon id="XMLID_28_" class="st13" points="377.6,485.1 415.8,485.1 499.4,321.1 461.2,321.1 "/>
<polygon id="XMLID_29_" class="st13" points="446.7,485.1 530.3,321.1 516,321.1 432.4,485.1 "/>
<g id="XMLID_32_" class="st14">
	<path id="XMLID_34_" class="st15" d="M521.5,428h-40.2c-0.8,0-1.5-0.7-1.5-1.5s0.7-1.5,1.5-1.5h40.2c0.8,0,1.5,0.7,1.5,1.5
		S522.3,428,521.5,428z"/>
</g>
<path id="XMLID_37_" class="st15" d="M495.2,425h-13.9c-0.8,0-1.5,0.7-1.5,1.5s0.7,1.5,1.5,1.5h13.9V425z"/>
</svg>
