<?xml version="1.0" encoding="utf-8"?>
<!-- Generator: Adobe Illustrator 23.1.1, SVG Export Plug-In . SVG Version: 6.00 Build 0)  -->
<svg version="1.1" id="Layer_1" xmlns="http://www.w3.org/2000/svg" xmlns:xlink="http://www.w3.org/1999/xlink" x="0px" y="0px"
	 viewBox="0 0 1000 1000" style="enable-background:new 0 0 1000 1000;" xml:space="preserve">
<style type="text/css">
	.st0{fill:#F5F5F5;}
	.st1{fill:#2D425E;}
	.st2{fill:#C9C9C9;}
	.st3{fill:#CECECE;}
	.st4{fill:#FFFFFF;}
	.st5{fill:none;stroke:#1F3969;stroke-width:4;stroke-linecap:round;stroke-linejoin:round;stroke-miterlimit:10;}
	.st6{fill:#FF3E3E;}
	.st7{opacity:0.28;fill:#1F3969;stroke:#1F3969;stroke-width:4;stroke-linecap:round;stroke-linejoin:round;stroke-miterlimit:10;}
	.st8{fill:#50B56F;}
	.st9{fill:#5F5AFF;}
	.st10{fill:#F6F9FD;}
	.st11{fill:#BFCFE2;}
	.st12{fill:#D0DDF0;}
	.st13{fill:#2AA1FF;}
	.st14{opacity:0.34;fill:none;stroke:#FFFFFF;stroke-width:2;stroke-linecap:round;stroke-linejoin:round;stroke-miterlimit:10;}
	.st15{opacity:0.34;}
	.st16{fill:none;stroke:#FFFFFF;stroke-width:2;stroke-linecap:round;stroke-linejoin:round;stroke-miterlimit:10;}
	.st17{fill:#1F3969;}
	.st18{fill:none;stroke:#FFFFFF;stroke-width:4;stroke-linecap:round;stroke-linejoin:round;stroke-miterlimit:10;}
	.st19{fill:none;stroke:#7BFFA0;stroke-width:4;stroke-linecap:round;stroke-linejoin:round;stroke-miterlimit:10;}
	.st20{fill:none;stroke:#9169FF;stroke-width:4;stroke-linecap:round;stroke-linejoin:round;stroke-miterlimit:10;}
	.st21{fill:none;stroke:#FFC47D;stroke-width:4;stroke-linecap:round;stroke-linejoin:round;stroke-miterlimit:10;}
	.st22{fill:none;stroke:#FF5757;stroke-width:4;stroke-linecap:round;stroke-linejoin:round;stroke-miterlimit:10;}
	.st23{fill:#FFA364;}
	.st24{fill:#FF5252;}
	.st25{fill:#6567C3;}
</style>
<rect class="st0" width="1000" height="1000"/>
<g id="XMLID_34_">
	<path id="XMLID_223_" class="st2" d="M789.5,666.3H169.2c-5,0-9-4-9-9v0c0-5,4-9,9-9h620.3c5,0,9,4,9,9v0
		C798.5,662.3,794.5,666.3,789.5,666.3z"/>
	<g id="XMLID_19_">
		<g id="XMLID_163_">
			<path id="XMLID_178_" class="st3" d="M285.9,573.3c-9.6,0-17.3-7.8-17.3-17.3s7.8-17.3,17.3-17.3h98v34.7H285.9z"/>
			<path id="XMLID_162_" class="st4" d="M389.6,579.3H285.9c-12.9,0-23.3-10.5-23.3-23.3l0,0c0-12.9,10.5-23.3,23.3-23.3h103.7
				V579.3z"/>
			<line id="XMLID_164_" class="st5" x1="279.5" y1="550.6" x2="383.9" y2="550.6"/>
			<line id="XMLID_173_" class="st5" x1="279.5" y1="561.2" x2="383.9" y2="561.2"/>
			<path id="XMLID_179_" class="st5" d="M285.9,573.3c-9.6,0-17.3-7.8-17.3-17.3s7.8-17.3,17.3-17.3h98v34.7H285.9z"/>
			<path id="XMLID_161_" class="st6" d="M285.9,573.3c-9.6,0-17.3-7.8-17.3-17.3s7.8-17.3,17.3-17.3h99.7l4-6H285.9
				c-12.9,0-23.3,10.5-23.3,23.3v0c0,12.9,10.5,23.3,23.3,23.3h103.7l-4-6H285.9z"/>
			<path id="XMLID_182_" class="st5" d="M285.9,573.3c-9.6,0-17.3-7.8-17.3-17.3s7.8-17.3,17.3-17.3h99.7l4-6H285.9
				c-12.9,0-23.3,10.5-23.3,23.3v0c0,12.9,10.5,23.3,23.3,23.3h103.7l-4-6H285.9z"/>
			<rect id="XMLID_224_" x="348.9" y="532.6" class="st7" width="18.4" height="46.7"/>
		</g>
		<g id="XMLID_160_">
			<path id="XMLID_157_" class="st8" d="M378.9,617.8H189c-3.7,0-6.8-3-6.8-6.8v-25c0-3.7,3-6.8,6.8-6.8h189.9c3.7,0,6.8,3,6.8,6.8
				v25C385.7,614.8,382.7,617.8,378.9,617.8z"/>
			<g>
				<path class="st4" d="M240.3,599.8h-2.6v5.5H236V592h4.3c3.1,0,4.6,1.7,4.6,3.9C244.9,597.9,243.6,599.8,240.3,599.8z
					 M240.3,598.3c2,0,2.8-0.9,2.8-2.4c0-1.5-0.8-2.5-2.8-2.5h-2.6v4.9H240.3z"/>
				<path class="st4" d="M249.7,592h1.9l3.3,6.7l3.3-6.7h1.9l-4.3,8.3v5h-1.7v-5L249.7,592z"/>
				<path class="st4" d="M264.9,592h9v1.4h-3.6v11.9h-1.7v-11.9h-3.6V592z"/>
				<path class="st4" d="M288.4,599.3h-6.8v6h-1.7V592h1.7v5.8h6.8V592h1.7v13.3h-1.7V599.3z"/>
				<path class="st4" d="M302.9,605.4c-3.7,0-6.7-2.8-6.7-6.8c0-4,2.9-6.8,6.7-6.8c3.8,0,6.7,2.8,6.7,6.8
					C309.5,602.6,306.6,605.4,302.9,605.4z M302.9,603.9c2.8,0,4.9-2,4.9-5.3c0-3.3-2.1-5.3-4.9-5.3s-4.9,2-4.9,5.3
					C298,601.9,300.1,603.9,302.9,603.9z"/>
				<path class="st4" d="M326.1,592v13.3h-1.7l-7-10.6v10.6h-1.7V592h1.7l7,10.5V592H326.1z"/>
			</g>
			<path id="XMLID_146_" class="st5" d="M378.9,617.8H189c-3.7,0-6.8-3-6.8-6.8v-25c0-3.7,3-6.8,6.8-6.8h189.9c3.7,0,6.8,3,6.8,6.8
				v25C385.7,614.8,382.7,617.8,378.9,617.8z"/>
		</g>
		<path id="XMLID_246_" class="st7" d="M378.9,579.3h-30v15c0,9.4,7.6,17.1,17.1,17.1h19.7c0-0.1,0-0.2,0-0.3v-25
			C385.7,582.3,382.7,579.3,378.9,579.3z"/>
		<path id="XMLID_35_" class="st3" d="M432.4,625.6H212.4c1.3,3.2,2,7.2,2,11.4c0,4.2-0.7,8.1-2,11.4h219.9c-1.3-3.2-2-7.2-2-11.4
			C430.4,632.7,431.1,628.8,432.4,625.6z"/>
		<rect id="XMLID_156_" x="206.5" y="619.5" class="st9" width="231.9" height="6"/>
		<rect id="XMLID_32_" x="206.5" y="619.5" class="st5" width="231.9" height="6"/>
		<rect id="XMLID_147_" x="206.5" y="648.3" class="st10" width="231.9" height="6"/>
		<rect id="XMLID_39_" x="206.5" y="648.3" class="st9" width="231.9" height="6"/>
		<rect id="XMLID_37_" x="206.5" y="648.3" class="st5" width="231.9" height="6"/>
		<path id="XMLID_69_" class="st11" d="M553.6,633l-3-33.7h-49.4l-3,33.7c-0.7,7.8-5.4,15.3-12.8,21.3l0,0.1h81l0-0.1
			C559,648.3,554.3,640.8,553.6,633z"/>
		<polygon id="XMLID_33_" class="st7" points="501.2,599.3 499.4,619.5 552.4,619.5 550.6,599.3 		"/>
		<path id="XMLID_10_" class="st5" d="M553.6,633l-3-33.7h-49.4l-3,33.7c-0.7,7.8-5.4,15.3-12.8,21.3l0,0.1h81l0-0.1
			C559,648.3,554.3,640.8,553.6,633z"/>
		<path id="XMLID_13_" class="st4" d="M683.9,604.3h-316c-6.6,0-12-5.4-12-12v-206c0-6.6,5.4-12,12-12h316c6.6,0,12,5.4,12,12v206
			C695.9,599,690.5,604.3,683.9,604.3z"/>
		<path id="XMLID_63_" class="st11" d="M683.9,604.3h-316c-6.6,0-12-5.4-12-12v-206c0-6.6,5.4-12,12-12h316c6.6,0,12,5.4,12,12v206
			C695.9,599,690.5,604.3,683.9,604.3z"/>
		<path id="XMLID_4_" class="st5" d="M683.9,604.3h-316c-6.6,0-12-5.4-12-12v-206c0-6.6,5.4-12,12-12h316c6.6,0,12,5.4,12,12v206
			C695.9,599,690.5,604.3,683.9,604.3z"/>
		
			<rect id="XMLID_68_" x="438.6" y="325.6" transform="matrix(-1.836970e-16 1 -1 -1.836970e-16 1004.5556 -47.2719)" class="st10" width="174.6" height="306"/>
		<path id="XMLID_197_" class="st7" d="M383.9,374.3v138.6c0,4.4,3.6,8,8,8H581c4.4,0,8-3.6,8-8V374.3H383.9z"/>
		
			<rect id="XMLID_11_" x="438.6" y="325.6" transform="matrix(-1.836970e-16 1 -1 -1.836970e-16 1004.5556 -47.2719)" class="st5" width="174.6" height="306"/>
		<line id="XMLID_9_" class="st5" x1="512.5" y1="585" x2="539.4" y2="585"/>
		<path id="XMLID_15_" class="st1" d="M590,509.9H400.9c-4.4,0-8-3.6-8-8V353.7c0-4.4,3.6-8,8-8H590c4.4,0,8,3.6,8,8v148.3
			C598,506.4,594.4,509.9,590,509.9z"/>
		<path id="XMLID_17_" class="st5" d="M598,365.1H392.9v-11.5c0-4.4,3.6-8,8-8H590c4.4,0,8,3.6,8,8V365.1z"/>
		<path id="XMLID_23_" class="st12" d="M598,368.9H392.9v-15.3c0-4.4,3.6-8,8-8H590c4.4,0,8,3.6,8,8V368.9z"/>
		<path id="XMLID_18_" class="st5" d="M598,368.9H392.9v-15.3c0-4.4,3.6-8,8-8H590c4.4,0,8,3.6,8,8V368.9z"/>
		<path id="XMLID_20_" class="st5" d="M598,368.9H392.9v-15.3c0-4.4,3.6-8,8-8H590c4.4,0,8,3.6,8,8V368.9z"/>
		<path id="XMLID_12_" class="st5" d="M590,509.9H400.9c-4.4,0-8-3.6-8-8V353.7c0-4.4,3.6-8,8-8H590c4.4,0,8,3.6,8,8v148.3
			C598,506.4,594.4,509.9,590,509.9z"/>
		<g id="XMLID_72_">
			<path id="XMLID_7_" class="st7" d="M688.7,545.3h-116c-4.4,0-8-3.6-8-8V414.4c0-4.4,3.6-8,8-8h116c4.4,0,8,3.6,8,8v122.9
				C696.7,541.8,693.1,545.3,688.7,545.3z"/>
			<path id="XMLID_16_" class="st13" d="M696.7,538.3h-116c-4.4,0-8-3.6-8-8V407.4c0-4.4,3.6-8,8-8h116c4.4,0,8,3.6,8,8v122.9
				C704.7,534.8,701.1,538.3,696.7,538.3z"/>
			<path id="XMLID_14_" class="st5" d="M696.7,538.3h-116c-4.4,0-8-3.6-8-8V407.4c0-4.4,3.6-8,8-8h116c4.4,0,8,3.6,8,8v122.9
				C704.7,534.8,701.1,538.3,696.7,538.3z"/>
			<path id="XMLID_75_" class="st14" d="M679.4,437.5h-81.6c-2.9,0-5.2-2.3-5.2-5.2v-7.8c0-2.9,2.3-5.2,5.2-5.2h81.6
				c2.9,0,5.2,2.3,5.2,5.2v7.8C684.6,435.2,682.3,437.5,679.4,437.5z"/>
			<g id="XMLID_143_" class="st15">
				<path id="XMLID_78_" class="st16" d="M643.6,466.8h-45.6c-2.9,0-5.2-2.3-5.2-5.2v-7.8c0-2.9,2.3-5.2,5.2-5.2h45.6
					c2.9,0,5.2,2.3,5.2,5.2v7.8C648.7,464.5,646.4,466.8,643.6,466.8z"/>
				<path id="XMLID_79_" class="st16" d="M679.5,466.8h-17.7c-2.9,0-5.2-2.3-5.2-5.2v-7.8c0-2.9,2.3-5.2,5.2-5.2h17.7
					c2.9,0,5.2,2.3,5.2,5.2v7.8C684.7,464.5,682.4,466.8,679.5,466.8z"/>
			</g>
			<g id="XMLID_76_">
				<line id="XMLID_135_" class="st16" x1="592.7" y1="497.2" x2="684.6" y2="497.2"/>
				<line id="XMLID_136_" class="st16" x1="592.7" y1="508" x2="684.6" y2="508"/>
				<line id="XMLID_138_" class="st16" x1="592.7" y1="518.8" x2="648.7" y2="518.8"/>
			</g>
		</g>
		<circle id="XMLID_24_" class="st17" cx="413" cy="357.3" r="4"/>
		<circle id="XMLID_28_" class="st17" cx="426.9" cy="357.3" r="4"/>
		<circle id="XMLID_38_" class="st17" cx="440.8" cy="357.3" r="4"/>
		<g id="XMLID_61_">
			<line id="XMLID_54_" class="st18" x1="510.7" y1="387.4" x2="523.7" y2="387.4"/>
			<line id="XMLID_66_" class="st19" x1="444.8" y1="387.4" x2="501.1" y2="387.4"/>
			<line id="XMLID_29_" class="st20" x1="417" y1="387.4" x2="436.8" y2="387.4"/>
		</g>
		<g id="XMLID_42_">
			<line id="XMLID_62_" class="st20" x1="442.8" y1="485.9" x2="485.8" y2="485.9"/>
			<line id="XMLID_30_" class="st19" x1="417" y1="485.9" x2="430.9" y2="485.9"/>
		</g>
		<g id="XMLID_27_">
			<line id="XMLID_60_" class="st18" x1="501.1" y1="399.7" x2="509.2" y2="399.7"/>
			<line id="XMLID_45_" class="st20" x1="464.3" y1="399.7" x2="491.5" y2="399.7"/>
			<line id="XMLID_47_" class="st21" x1="426.9" y1="399.7" x2="454.6" y2="399.7"/>
		</g>
		<g id="XMLID_49_">
			<line id="XMLID_59_" class="st18" x1="469.8" y1="412" x2="493.7" y2="412"/>
			<line id="XMLID_50_" class="st22" x1="439.8" y1="412" x2="462.3" y2="412"/>
		</g>
		<g id="XMLID_65_">
			<line id="XMLID_58_" class="st18" x1="473" y1="424.3" x2="477.9" y2="424.3"/>
			<line id="XMLID_70_" class="st20" x1="453.2" y1="424.3" x2="464.3" y2="424.3"/>
			<line id="XMLID_67_" class="st19" x1="426.9" y1="424.3" x2="444.8" y2="424.3"/>
		</g>
		<g id="XMLID_73_">
			<line id="XMLID_77_" class="st21" x1="465.3" y1="436.7" x2="497.2" y2="436.7"/>
			<line id="XMLID_74_" class="st22" x1="426.9" y1="436.7" x2="455.5" y2="436.7"/>
		</g>
		<g id="XMLID_80_">
			<line id="XMLID_64_" class="st20" x1="502.2" y1="449" x2="519.5" y2="449"/>
			<line id="XMLID_84_" class="st22" x1="465.3" y1="449" x2="493" y2="449"/>
			<line id="XMLID_81_" class="st19" x1="439.8" y1="449" x2="455.5" y2="449"/>
		</g>
		<g id="XMLID_87_">
			<line id="XMLID_95_" class="st18" x1="477.9" y1="461.3" x2="493" y2="461.3"/>
			<line id="XMLID_90_" class="st20" x1="439.8" y1="461.3" x2="467.5" y2="461.3"/>
		</g>
		<g id="XMLID_98_">
			<line id="XMLID_71_" class="st18" x1="517.2" y1="473.6" x2="534.5" y2="473.6"/>
			<line id="XMLID_102_" class="st21" x1="464.3" y1="473.6" x2="507.8" y2="473.6"/>
			<line id="XMLID_99_" class="st18" x1="426.9" y1="473.6" x2="454.6" y2="473.6"/>
		</g>
		<line id="XMLID_145_" class="st5" x1="214.9" y1="632.5" x2="430.4" y2="632.5"/>
		<line id="XMLID_151_" class="st5" x1="214.9" y1="640.5" x2="430.4" y2="640.5"/>
		<path id="XMLID_158_" class="st5" d="M432.4,625.6H212.4c1.3,3.2,2,7.2,2,11.4c0,4.2-0.7,8.1-2,11.4h219.9c-1.3-3.2-2-7.2-2-11.4
			C430.4,632.7,431.1,628.8,432.4,625.6z"/>
	</g>
	<g id="XMLID_222_">
		<g id="XMLID_174_">
			
				<rect id="XMLID_177_" x="722.8" y="544.4" transform="matrix(0.9932 -0.1166 0.1166 0.9932 -62.746 88.7942)" class="st23" width="9.8" height="72.6"/>
			
				<rect id="XMLID_31_" x="719" y="544.7" transform="matrix(0.9932 -0.1166 0.1166 0.9932 -58.9937 88.1297)" class="st13" width="9.8" height="7.4"/>
			
				<rect id="XMLID_217_" x="719" y="544.7" transform="matrix(0.9932 -0.1166 0.1166 0.9932 -58.9937 88.1297)" class="st5" width="9.8" height="7.4"/>
			
				<rect id="XMLID_22_" x="722.8" y="544.4" transform="matrix(0.9932 -0.1166 0.1166 0.9932 -62.746 88.7942)" class="st5" width="9.8" height="72.6"/>
		</g>
		<g id="XMLID_189_">
			
				<rect id="XMLID_218_" x="741.4" y="558.1" transform="matrix(0.9941 0.1081 -0.1081 0.9941 68.6015 -77.1711)" class="st24" width="9.8" height="72.6"/>
			
				<rect id="XMLID_214_" x="741.4" y="558.1" transform="matrix(0.9941 0.1081 -0.1081 0.9941 68.6015 -77.1711)" class="st5" width="9.8" height="72.6"/>
			
				<rect id="XMLID_220_" x="745" y="558.3" transform="matrix(0.9941 0.1081 -0.1081 0.9941 65.1167 -77.742)" class="st1" width="9.8" height="7.4"/>
			
				<rect id="XMLID_211_" x="745" y="558.3" transform="matrix(0.9941 0.1081 -0.1081 0.9941 65.1167 -77.742)" class="st5" width="9.8" height="7.4"/>
		</g>
		<polygon id="XMLID_26_" class="st25" points="761.1,654.6 721.8,654.6 715.4,594.4 767.5,594.4 		"/>
		<polygon id="XMLID_233_" class="st25" points="715.4,594.4 715.5,595.5 755.2,595.5 748.9,654.6 761.1,654.6 767.5,594.4 		"/>
		<polygon id="XMLID_21_" class="st5" points="761.1,654.6 721.8,654.6 715.4,594.4 767.5,594.4 		"/>
	</g>
</g>
</svg>
